<svg width="24" height="24" viewBox="0 0 24 24" fill="none" xmlns="http://www.w3.org/2000/svg">
<path d="M11 4H6C4.89543 4 4 4.89543 4 6V18C4 19.1046 4.89543 20 6 20H18C19.1046 20 20 19.1046 20 18V13H22V18C22 20.2091 20.2091 22 18 22H6L5.79395 21.9951C3.68056 21.8879 2 20.14 2 18V6C2 3.79086 3.79086 2 6 2H11V4ZM17 17H15V13L17 11V17ZM18 2C20.2091 2 22 3.79086 22 6V11H20V6C20 5.8211 19.9738 5.64841 19.9297 5.4834L8.70703 16.707C8.42103 16.993 7.99086 17.0786 7.61719 16.9238C7.24359 16.769 7 16.4044 7 16V7H9V13.5859L18.5156 4.06934C18.351 4.02547 18.1785 4 18 4H13V2H18Z" fill="black"/>
</svg>
